<svg viewBox="0 0 90 90" fill="none" xmlns="http://www.w3.org/2000/svg" width="80" height="80" colors="#a3a948,#edb92e,#f85931,#ce1836,#009989" name="Alicia Dickerson" size="80"><path d="M90 45a45.001 45.001 0 00-76.82-31.82A45 45 0 000 45h90z" fill="#f85931"></path><path d="M90 45a45.001 45.001 0 01-76.82 31.82A45 45 0 010 45h90z" fill="#ce1836"></path><path d="M83 45a38 38 0 00-76 0h76z" fill="#ce1836"></path><path d="M83 45a38 38 0 01-76 0h76z" fill="#009989"></path><path d="M77 45a32 32 0 10-64 0h64z" fill="#009989"></path><path d="M77 45a32 32 0 11-64 0h64z" fill="#a3a948"></path><path d="M71 45a26 26 0 00-52 0h52z" fill="#a3a948"></path><path d="M71 45a26 26 0 01-52 0h52z" fill="#f85931"></path><circle cx="45" cy="45" r="23" fill="#edb92e"></circle></svg>